<svg width="24" height="25" viewBox="0 0 24 25" fill="none" xmlns="http://www.w3.org/2000/svg">
<g id="Card">
<path id="Subtract" fill-rule="evenodd" clip-rule="evenodd" d="M1.10001 7.42637C1.10001 5.82474 2.39838 4.52637 4.00001 4.52637H20C21.6016 4.52637 22.9 5.82474 22.9 7.42637V9.42637V17.4264C22.9 19.028 21.6016 20.3264 20 20.3264H4.00001C2.39838 20.3264 1.10001 19.028 1.10001 17.4264V9.42637V7.42637ZM4.00001 6.32637C3.39249 6.32637 2.90001 6.81885 2.90001 7.42637V8.52637H21.1V7.42637C21.1 6.81885 20.6075 6.32637 20 6.32637H4.00001ZM21.1 10.3264H2.90001V17.4264C2.90001 18.0339 3.39249 18.5264 4.00001 18.5264H20C20.6075 18.5264 21.1 18.0339 21.1 17.4264V10.3264ZM13.1 15.4264C13.1 14.9293 13.5029 14.5264 14 14.5264H18C18.4971 14.5264 18.9 14.9293 18.9 15.4264C18.9 15.9234 18.4971 16.3264 18 16.3264H14C13.5029 16.3264 13.1 15.9234 13.1 15.4264Z" fill="#7A7A7A"/>
</g>
</svg>
