<svg width="20" height="21" viewBox="0 0 20 21" fill="none" xmlns="http://www.w3.org/2000/svg">
<g id="dinner 1" clip-path="url(#clip0_109_95)">
<path id="Vector" d="M3.31938 8.30726C5.15019 8.30726 6.63967 6.81819 6.63967 4.98787C6.63967 3.58528 6.44987 1.27071 6.44178 1.17286C6.40667 0.747455 6.02897 0.430977 5.59952 0.465523C5.16949 0.500262 4.84933 0.873312 4.88445 1.29872C4.88636 1.32206 5.07718 3.64862 5.07718 4.98787C5.07718 5.9659 4.28863 6.76158 3.31938 6.76158C2.35012 6.76158 1.56157 5.9659 1.56157 4.98787C1.56157 3.64769 1.75235 1.32206 1.7543 1.29872C1.78942 0.873312 1.46931 0.500262 1.03927 0.465523C0.609659 0.430591 0.232122 0.747416 0.196966 1.17286C0.188881 1.27071 -0.000921249 3.58528 -0.000921249 4.98787C-0.000921249 6.81819 1.48856 8.30726 3.31938 8.30726ZM2.53813 4.21121V1.23577C2.53813 0.808934 2.88789 0.462934 3.31938 0.462934C3.75086 0.462934 4.10062 0.808934 4.10062 1.23577V4.21121C4.10062 4.63805 3.75086 4.98405 3.31938 4.98405C2.88789 4.98405 2.53813 4.63805 2.53813 4.21121ZM5.84796 19.367C5.45507 19.1906 5.2812 18.7324 5.4596 18.3438C5.63792 17.9552 6.101 17.7831 6.49393 17.9596C7.57522 18.4453 8.78724 18.702 9.99903 18.702C14.6515 18.702 18.4365 14.9577 18.4365 10.3553C18.4365 5.75294 14.6515 2.00865 9.99903 2.00865C9.61579 2.00865 9.23056 2.03427 8.854 2.08478C8.4267 2.14204 8.03287 1.84574 7.97486 1.4228C7.91686 0.999864 8.2165 0.610469 8.64404 0.553124C9.08994 0.493307 9.54579 0.462973 9.99903 0.462973C12.6701 0.462973 15.1813 1.49197 17.0701 3.36035C18.9588 5.22877 19.999 7.71298 19.999 10.3553C19.999 12.9977 18.9588 15.4818 17.0701 17.3503C15.1813 19.2187 12.6701 20.2477 9.99903 20.2477C8.56607 20.2476 7.13061 19.9431 5.84796 19.367ZM9.83204 16.4976C9.40068 16.4875 9.05931 16.1333 9.06951 15.7067C9.0797 15.2799 9.43658 14.9427 9.86907 14.9523C9.90626 14.9532 9.94333 14.9536 9.9804 14.9536C12.4826 14.9536 14.5475 12.9704 14.6071 10.483C14.6364 9.26017 14.1825 8.09925 13.3291 7.21408C12.4757 6.3289 11.3249 5.82544 10.0886 5.79642C9.71376 5.7878 9.29943 5.83359 8.88959 5.92934C8.46935 6.02753 8.04885 5.77022 7.94963 5.35485C7.85045 4.93945 8.11045 4.52316 8.53037 4.42505C9.06806 4.29943 9.61986 4.23907 10.1256 4.25116C11.7791 4.28992 13.3183 4.96333 14.4598 6.14725C15.6013 7.3312 16.2083 8.88399 16.1691 10.5196C16.0893 13.8468 13.3278 16.4993 9.98087 16.4993C9.93157 16.4994 9.88157 16.4987 9.83204 16.4976ZM2.53813 19.4748V10.6258C2.53813 10.1989 2.88789 9.85294 3.31938 9.85294C3.75086 9.85294 4.10062 10.1989 4.10062 10.6258V19.4748C4.10062 19.9016 3.75086 20.2476 3.31938 20.2476C2.88789 20.2476 2.53813 19.9016 2.53813 19.4748Z" fill="white"/>
</g>
<defs>
<clipPath id="clip0_109_95">
<rect width="20" height="19.7848" fill="white" transform="matrix(-1 0 0 1 20 0.461914)"/>
</clipPath>
</defs>
</svg>
