<svg width="24" height="25" viewBox="0 0 24 25" fill="none" xmlns="http://www.w3.org/2000/svg">
<g id="draft-line 1" clip-path="url(#clip0_109_128)">
<path id="Vector" d="M20 2.84717C20.552 2.84717 21 3.29035 21 3.83641V7.55298L19 9.53145V4.82564H5V20.6535H19V17.9251L21 15.9467V21.6427C21 22.1888 20.552 22.6319 20 22.6319H4C3.448 22.6319 3 22.1888 3 21.6427V3.83641C3 3.29035 3.448 2.84717 4 2.84717H20ZM21.778 9.5819L23.192 10.9807L15.414 18.675L13.998 18.673L14 17.2762L21.778 9.5819ZM13 12.7396V14.718H8V12.7396H13ZM16 8.7826V10.7611H8V8.7826H16Z" fill="#7A7A7A"/>
</g>
<defs>
<clipPath id="clip0_109_128">
<rect width="24" height="23.7417" fill="white" transform="translate(0 0.868652)"/>
</clipPath>
</defs>
</svg>
