<svg width="24" height="20" viewBox="0 0 24 20" fill="none" xmlns="http://www.w3.org/2000/svg">
<g id="Group">
<g id="Group_2">
<g id="Group_3">
<path id="Vector" d="M20.3973 4.20743C20.0788 3.89573 19.5788 3.84977 19.2064 4.09807C17.8036 5.03376 10.7675 9.73884 10.0113 10.4788C8.91469 11.552 8.91469 13.298 10.0113 14.3712C10.5596 14.9077 11.2799 15.176 12.0001 15.176C12.7202 15.176 13.4405 14.9077 13.9888 14.3712C14.745 13.6312 19.5529 6.74568 20.5091 5.37293C20.7628 5.00857 20.7158 4.51922 20.3973 4.20743ZM12.6629 13.0737C12.2974 13.4315 11.7026 13.4315 11.3371 13.0737C10.9716 12.716 10.9716 12.1342 11.337 11.7765C11.6308 11.4923 13.6284 10.0981 16.0863 8.42623C14.3779 10.8315 12.9532 12.7863 12.6629 13.0737Z" fill="#7A7A7A"/>
<path id="Vector_2" d="M4.32333 16.6921L3.16598 17.2446C2.31914 15.7656 1.875 14.1149 1.875 12.425C1.875 11.1869 2.1083 10.001 2.53406 8.90743L3.8602 9.5299C3.99098 9.59128 4.12903 9.62036 4.26502 9.62036C4.61438 9.62036 4.94977 9.42839 5.11097 9.09949C5.33484 8.64266 5.13797 8.09463 4.67109 7.8755L3.36178 7.26092C4.98914 4.66367 7.80478 2.85289 11.0625 2.55886V3.93872C11.0625 4.44541 11.4823 4.85615 12 4.85615C12.5178 4.85615 12.9375 4.44541 12.9375 3.93872V2.55817C14.0545 2.65766 15.1352 2.93601 16.1612 3.38922C16.633 3.59771 17.1883 3.39225 17.4014 2.93055C17.6144 2.46872 17.4045 1.92537 16.9326 1.71688C15.378 1.03014 13.7184 0.681885 12 0.681885C8.79469 0.681885 5.78124 1.90335 3.51469 4.12133C1.24823 6.33936 0 9.2883 0 12.425C0 14.7429 0.703031 16.9972 2.03311 18.944C2.21227 19.2062 2.50847 19.3516 2.81306 19.3516C2.95153 19.3516 3.09178 19.3216 3.22355 19.2587L5.14542 18.3413C5.6108 18.1191 5.80402 17.5699 5.577 17.1145C5.34998 16.6591 4.7887 16.4701 4.32333 16.6921Z" fill="#7A7A7A"/>
<path id="Vector_3" d="M22.9423 7.59809C22.7293 7.13631 22.1742 6.9308 21.7021 7.13938C21.2302 7.34787 21.0204 7.89121 21.2334 8.353C21.8251 9.63547 22.125 11.0055 22.125 12.4251C22.125 14.1174 21.6794 15.7709 20.8301 17.2516L19.6218 16.6885C19.1544 16.4707 18.5949 16.6649 18.3723 17.1224C18.1497 17.5798 18.3482 18.1273 18.8157 18.3451L20.7844 19.2626C20.9139 19.3229 21.0512 19.3517 21.187 19.3517C21.4917 19.3517 21.7879 19.2061 21.9669 18.9441C23.297 16.9972 24 14.7429 24 12.4251C24 10.7435 23.6441 9.11942 22.9423 7.59809Z" fill="#7A7A7A"/>
</g>
</g>
</g>
</svg>
