<svg width="24" height="25" viewBox="0 0 24 25" fill="none" xmlns="http://www.w3.org/2000/svg">
<g id="notes 1" clip-path="url(#clip0_109_147)">
<g id="Group">
<g id="Group_2">
<path id="Vector" d="M15.5 7.53564H6.50002C6.22402 7.53564 6 7.75744 6 8.03069C6 8.30395 6.22402 8.52574 6.50002 8.52574H15.5C15.776 8.52574 16 8.30395 16 8.03069C16 7.75744 15.776 7.53564 15.5 7.53564Z" fill="#7A7A7A"/>
</g>
</g>
<g id="Group_3">
<g id="Group_4">
<path id="Vector_2" d="M3.50003 18.4175C2.67301 18.4175 2.00003 19.0832 2.00003 19.9013C2.00003 20.7195 2.67301 21.3852 3.50003 21.3852C4.32705 21.3852 5.00003 20.7195 5.00003 19.9013C5.00003 19.0832 4.327 18.4175 3.50003 18.4175ZM3.50003 20.396C3.22403 20.396 3.00001 20.1744 3.00001 19.9013C3.00001 19.6283 3.22403 19.4067 3.50003 19.4067C3.77603 19.4067 4 19.6283 4 19.9013C4 20.1744 3.77603 20.396 3.50003 20.396Z" fill="#7A7A7A"/>
</g>
</g>
<g id="Group_5">
<g id="Group_6">
<path id="Vector_3" d="M3.50003 14.4604C2.67301 14.4604 2.00003 15.1262 2.00003 15.9443C2.00003 16.7624 2.67301 17.4282 3.50003 17.4282C4.32705 17.4282 5.00003 16.7624 5.00003 15.9443C5.00003 15.1262 4.327 14.4604 3.50003 14.4604ZM3.50003 16.4389C3.22403 16.4389 3.00001 16.2173 3.00001 15.9443C3.00001 15.6712 3.22403 15.4497 3.50003 15.4497C3.77603 15.4497 4.00005 15.6713 4.00005 15.9443C4.00005 16.2173 3.77603 16.4389 3.50003 16.4389Z" fill="#7A7A7A"/>
</g>
</g>
<g id="Group_7">
<g id="Group_8">
<path id="Vector_4" d="M3.50003 10.5034C2.67301 10.5034 2.00003 11.1692 2.00003 11.9873C2.00003 12.8054 2.67301 13.4711 3.50003 13.4711C4.32705 13.4711 5.00003 12.8054 5.00003 11.9873C5.00003 11.1692 4.327 10.5034 3.50003 10.5034ZM3.50003 12.4819C3.22403 12.4819 3.00001 12.2603 3.00001 11.9873C3.00001 11.7143 3.22403 11.4926 3.50003 11.4926C3.77603 11.4926 4.00005 11.7143 4.00005 11.9873C4.00005 12.2603 3.77603 12.4819 3.50003 12.4819Z" fill="#7A7A7A"/>
</g>
</g>
<g id="Group_9">
<g id="Group_10">
<path id="Vector_5" d="M3.50003 6.54663C2.67301 6.54663 2.00003 7.21237 2.00003 8.03049C2.00003 8.8486 2.67301 9.51435 3.50003 9.51435C4.32705 9.51435 5.00003 8.8486 5.00003 8.03049C5.00003 7.21237 4.327 6.54663 3.50003 6.54663ZM3.50003 8.52512C3.22403 8.52512 3.00001 8.30352 3.00001 8.03049C3.00001 7.75746 3.22403 7.53585 3.50003 7.53585C3.77603 7.53585 4 7.75746 4 8.03049C4 8.30352 3.77603 8.52512 3.50003 8.52512Z" fill="#7A7A7A"/>
</g>
</g>
<g id="Group_11">
<g id="Group_12">
<path id="Vector_6" d="M21.378 5.55729C20.678 5.55729 20.02 5.82735 19.525 6.31703L18.146 7.6812L18 7.8256V4.07343C18 3.25532 17.327 2.58958 16.5 2.58958H13.908C13.701 2.01481 13.151 1.60035 12.5 1.60035H10.726C10.373 0.996887 9.71798 0.611084 9 0.611084C8.28202 0.611084 7.62698 0.996887 7.27402 1.60031H5.50003C4.84903 1.60031 4.29905 2.01481 4.09205 2.58953H1.5C0.672984 2.58953 0 3.25527 0 4.07339V22.8689C0 23.6871 0.672984 24.3528 1.5 24.3528H16.5C17.327 24.3528 18 23.6871 18 22.8689V15.1588L21.85 11.3503C21.851 11.3493 21.852 11.3493 21.853 11.3483C21.854 11.3473 21.854 11.3463 21.855 11.3453L23.232 9.98313C23.728 9.49346 24 8.84255 24 8.14908C24 6.71962 22.824 5.55729 21.378 5.55729ZM5.00002 3.08416C5.00002 2.81113 5.22403 2.58953 5.50003 2.58953H7.59202C7.803 2.58953 7.992 2.45696 8.06302 2.26011C8.205 1.86541 8.58202 1.60031 9 1.60031C9.41798 1.60031 9.795 1.86541 9.93698 2.26011C10.008 2.45798 10.197 2.58953 10.408 2.58953H12.5C12.776 2.58953 13 2.81113 13 3.08416V3.5788H5.00002V3.08416ZM17 22.8689C17 23.142 16.776 23.3636 16.5 23.3636H1.5C1.224 23.3636 0.999984 23.142 0.999984 22.8689V4.07343C0.999984 3.8004 1.224 3.5788 1.5 3.5788H3.99998V4.07343C3.99998 4.34646 4.224 4.56807 4.5 4.56807H13.5C13.776 4.56807 14 4.34646 14 4.07343V3.5788H16.5C16.776 3.5788 17 3.8004 17 4.07343V8.81487L14.23 11.555C14.16 11.5185 14.084 11.4927 14 11.4927H6.50002C6.22402 11.4927 6 11.7143 6 11.9874C6 12.2604 6.22402 12.4819 6.50002 12.4819H13.293L10.293 15.4497H6.50002C6.22402 15.4497 6 15.6713 6 15.9443C6 16.2173 6.22402 16.4389 6.50002 16.4389H9.86002L9.11002 19.4066H6.50002C6.22402 19.4066 6 19.6283 6 19.9013C6 20.1743 6.22402 20.3959 6.50002 20.3959H9.50002C9.54103 20.3959 9.58102 20.391 9.621 20.3801L13.621 19.3909C13.633 19.3879 13.641 19.377 13.653 19.3731C13.716 19.3523 13.773 19.3206 13.822 19.2791C13.831 19.2712 13.845 19.2702 13.854 19.2613L17 16.1481V22.8689ZM10.872 16.5151C11.195 16.608 11.673 16.8138 12.146 17.2827C12.62 17.7516 12.829 18.2255 12.923 18.544L10.187 19.2216L10.872 16.5151ZM13.765 17.9494C13.602 17.5419 13.331 17.0562 12.852 16.5833C12.375 16.1115 11.885 15.8424 11.473 15.6821L18.5 8.73075L20.792 10.9981L13.765 17.9494ZM22.525 9.28372L21.499 10.2987L19.207 8.03135L20.233 7.01541C20.539 6.71173 20.946 6.54554 21.38 6.54554C22.273 6.54554 23 7.2647 23 8.1501C23 8.57843 22.831 8.98102 22.525 9.28372Z" fill="#7A7A7A"/>
</g>
</g>
</g>
<defs>
<clipPath id="clip0_109_147">
<rect width="24" height="23.7417" fill="white" transform="translate(0 0.611084)"/>
</clipPath>
</defs>
</svg>
