<svg width="24" height="25" viewBox="0 0 24 25" fill="none" xmlns="http://www.w3.org/2000/svg">
<g id="settings 1" clip-path="url(#clip0_109_170)">
<path id="Vector" d="M12 15.8229C13.6569 15.8229 15 14.4942 15 12.8552C15 11.2161 13.6569 9.88745 12 9.88745C10.3431 9.88745 9 11.2161 9 12.8552C9 14.4942 10.3431 15.8229 12 15.8229Z" stroke="#7A7A7A" stroke-width="2" stroke-linecap="round" stroke-linejoin="round"/>
<path id="Vector_2" d="M19.4 15.8237C19.2669 16.1221 19.2272 16.453 19.286 16.774C19.3448 17.0949 19.4995 17.391 19.73 17.6241L19.79 17.6835C19.976 17.8672 20.1235 18.0854 20.2241 18.3256C20.3248 18.5658 20.3766 18.8232 20.3766 19.0832C20.3766 19.3432 20.3248 19.6007 20.2241 19.8409C20.1235 20.0811 19.976 20.2993 19.79 20.483C19.6043 20.667 19.3837 20.8129 19.1409 20.9125C18.8981 21.012 18.6378 21.0633 18.375 21.0633C18.1122 21.0633 17.8519 21.012 17.6091 20.9125C17.3663 20.8129 17.1457 20.667 16.96 20.483L16.9 20.4237C16.6643 20.1956 16.365 20.0426 16.0406 19.9844C15.7162 19.9262 15.3816 19.9655 15.08 20.0972C14.7842 20.2226 14.532 20.4308 14.3543 20.6962C14.1766 20.9616 14.0813 21.2726 14.08 21.591V21.7591C14.08 22.2839 13.8693 22.7871 13.4942 23.1581C13.1191 23.5292 12.6104 23.7376 12.08 23.7376C11.5496 23.7376 11.0409 23.5292 10.6658 23.1581C10.2907 22.7871 10.08 22.2839 10.08 21.7591V21.6701C10.0723 21.3427 9.96512 21.0251 9.77251 20.7587C9.5799 20.4923 9.31074 20.2894 9 20.1764C8.69838 20.0447 8.36381 20.0054 8.03941 20.0636C7.71502 20.1218 7.41568 20.2747 7.18 20.5028L7.12 20.5622C6.93425 20.7461 6.71368 20.892 6.47088 20.9916C6.22808 21.0912 5.96783 21.1424 5.705 21.1424C5.44217 21.1424 5.18192 21.0912 4.93912 20.9916C4.69632 20.892 4.47575 20.7461 4.29 20.5622C4.10405 20.3784 3.95653 20.1602 3.85588 19.92C3.75523 19.6798 3.70343 19.4224 3.70343 19.1624C3.70343 18.9024 3.75523 18.6449 3.85588 18.4047C3.95653 18.1646 4.10405 17.9464 4.29 17.7626L4.35 17.7033C4.58054 17.4701 4.73519 17.174 4.794 16.8531C4.85282 16.5322 4.81312 16.2012 4.68 15.9028C4.55324 15.6103 4.34276 15.3607 4.07447 15.185C3.80618 15.0092 3.49179 14.9149 3.17 14.9136H3C2.46957 14.9136 1.96086 14.7052 1.58579 14.3341C1.21071 13.9631 1 13.4599 1 12.9351C1 12.4104 1.21071 11.9072 1.58579 11.5361C1.96086 11.1651 2.46957 10.9566 3 10.9566H3.09C3.42099 10.949 3.742 10.843 4.0113 10.6525C4.28059 10.4619 4.48572 10.1957 4.6 9.88827C4.73312 9.5899 4.77282 9.25893 4.714 8.93802C4.65519 8.61712 4.50054 8.321 4.27 8.08786L4.21 8.0285C4.02405 7.84476 3.87653 7.62655 3.77588 7.38637C3.67523 7.14619 3.62343 6.88873 3.62343 6.62873C3.62343 6.36873 3.67523 6.11128 3.77588 5.87109C3.87653 5.63091 4.02405 5.41271 4.21 5.22896C4.39575 5.04501 4.61632 4.89908 4.85912 4.79951C5.10192 4.69995 5.36217 4.6487 5.625 4.6487C5.88783 4.6487 6.14808 4.69995 6.39088 4.79951C6.63368 4.89908 6.85425 5.04501 7.04 5.22896L7.1 5.28831C7.33568 5.51637 7.63502 5.66935 7.95941 5.72754C8.28381 5.78573 8.61838 5.74644 8.92 5.61476H9C9.29577 5.48936 9.54802 5.28115 9.72569 5.01574C9.90337 4.75034 9.99872 4.43934 10 4.12101V3.95284C10 3.42812 10.2107 2.92488 10.5858 2.55385C10.9609 2.18281 11.4696 1.97437 12 1.97437C12.5304 1.97437 13.0391 2.18281 13.4142 2.55385C13.7893 2.92488 14 3.42812 14 3.95284V4.04187C14.0013 4.3602 14.0966 4.6712 14.2743 4.93661C14.452 5.20201 14.7042 5.41022 15 5.53562C15.3016 5.66731 15.6362 5.70659 15.9606 5.6484C16.285 5.59022 16.5843 5.43723 16.82 5.20917L16.88 5.14982C17.0657 4.96587 17.2863 4.81994 17.5291 4.72037C17.7719 4.62081 18.0322 4.56956 18.295 4.56956C18.5578 4.56956 18.8181 4.62081 19.0609 4.72037C19.3037 4.81994 19.5243 4.96587 19.71 5.14982C19.896 5.33357 20.0435 5.55177 20.1441 5.79195C20.2448 6.03214 20.2966 6.28959 20.2966 6.54959C20.2966 6.8096 20.2448 7.06705 20.1441 7.30723C20.0435 7.54741 19.896 7.76562 19.71 7.94937L19.65 8.00872C19.4195 8.24186 19.2648 8.53798 19.206 8.85888C19.1472 9.17979 19.1869 9.51076 19.32 9.80913V9.88827C19.4468 10.1809 19.6572 10.4304 19.9255 10.6062C20.1938 10.7819 20.5082 10.8762 20.83 10.8775H21C21.5304 10.8775 22.0391 11.086 22.4142 11.457C22.7893 11.828 23 12.3313 23 12.856C23 13.3807 22.7893 13.8839 22.4142 14.255C22.0391 14.626 21.5304 14.8345 21 14.8345H20.91C20.5882 14.8357 20.2738 14.9301 20.0055 15.1058C19.7372 15.2816 19.5268 15.5311 19.4 15.8237V15.8237Z" stroke="#7A7A7A" stroke-width="2" stroke-linecap="round" stroke-linejoin="round"/>
</g>
<defs>
<clipPath id="clip0_109_170">
<rect width="24" height="23.7417" fill="white" transform="translate(0 0.984375)"/>
</clipPath>
</defs>
</svg>
