<svg width="24" height="24" viewBox="0 0 24 24" fill="none" xmlns="http://www.w3.org/2000/svg">
<g id="users 1" clip-path="url(#clip0_109_137)">
<g id="Group">
<path id="Vector" d="M19.4577 11.7479C21.9175 9.56043 22.1189 5.81461 19.9076 3.38136C17.8795 1.14968 14.4849 0.77055 12.0049 2.4988C9.3014 0.611367 5.5631 1.24934 3.65513 3.9237C1.90441 6.37767 2.2861 9.73923 4.54353 11.7478C1.73862 13.2105 -0.0119968 16.0941 0.000709573 19.2307V21.7744C0.000709573 22.2427 0.384463 22.6224 0.857865 22.6224H23.1434C23.6168 22.6224 24.0006 22.2427 24.0006 21.7744V19.2307C24.0133 16.0941 22.2626 13.2105 19.4577 11.7479ZM15.4291 3.12033C17.7927 3.11775 19.711 5.0111 19.7136 7.34926C19.7155 9.0168 18.7277 10.5301 17.1906 11.2145C17.1246 11.2442 17.0586 11.2713 16.9917 11.2993C16.7802 11.3837 16.562 11.4509 16.3394 11.5003C16.2966 11.5096 16.2537 11.5147 16.21 11.5232C15.9613 11.5703 15.7089 11.5956 15.4557 11.5986C15.3417 11.5986 15.2269 11.5902 15.1128 11.58C15.07 11.58 15.0271 11.58 14.9843 11.5715C14.4971 11.5148 14.0232 11.3766 13.5829 11.1628C13.5666 11.1552 13.5477 11.156 13.5314 11.1493C13.4457 11.1086 13.36 11.073 13.2837 11.0272C13.2906 11.0187 13.2949 11.0094 13.3017 11.0009C13.6947 10.5013 14.0046 9.94283 14.2197 9.34659L14.2462 9.27535C14.344 8.99057 14.42 8.69893 14.4734 8.40282C14.4811 8.3596 14.4871 8.31802 14.494 8.27141C14.5436 7.96999 14.5696 7.66529 14.572 7.35989C14.5695 7.05509 14.5435 6.75093 14.494 6.45005C14.4871 6.40598 14.4811 6.36525 14.4734 6.31864C14.42 6.02259 14.344 5.7309 14.2462 5.44612L14.2197 5.37487C14.0046 4.77864 13.6947 4.2202 13.3017 3.7206C13.2948 3.7121 13.2906 3.70281 13.2837 3.69431C13.9349 3.31852 14.6753 3.12038 15.4291 3.12033ZM4.28638 7.35994C4.28031 5.02456 6.18913 3.12649 8.54991 3.12048C9.65652 3.11765 10.7211 3.5395 11.5198 4.29726C11.5695 4.34476 11.6184 4.3922 11.6663 4.44139C11.8135 4.59397 11.9493 4.75692 12.0726 4.92892C12.1104 4.98149 12.1447 5.03748 12.1798 5.09173C12.2996 5.27412 12.4047 5.4655 12.4943 5.66408C12.5158 5.71242 12.532 5.7616 12.5509 5.80989C12.6412 6.02954 12.7123 6.25649 12.7635 6.48821C12.7695 6.51365 12.7712 6.53908 12.7763 6.56537C12.8849 7.09185 12.8849 7.63463 12.7763 8.16112C12.7712 8.1874 12.7694 8.21284 12.7635 8.23828C12.7124 8.46999 12.6413 8.69694 12.5509 8.91659C12.532 8.96493 12.5157 9.01412 12.4943 9.06241C12.4046 9.26069 12.2995 9.45177 12.1798 9.63391C12.1446 9.68816 12.1104 9.74415 12.0726 9.79672C11.9494 9.96877 11.8135 10.1317 11.6663 10.2842C11.6183 10.3334 11.5695 10.3809 11.5198 10.4284C11.1728 10.7555 10.7726 11.0227 10.3361 11.2186C10.2667 11.25 10.1964 11.2788 10.1253 11.3034C9.91864 11.3846 9.70604 11.4498 9.48928 11.4984C9.43529 11.5103 9.37954 11.5171 9.3247 11.5264C9.09197 11.5693 8.85597 11.5928 8.61927 11.5968H8.525C8.2883 11.5928 8.0523 11.5693 7.81957 11.5264C7.76473 11.5171 7.70898 11.5103 7.65499 11.4984C7.43823 11.4498 7.22558 11.3846 7.01902 11.3034C6.94785 11.2755 6.87759 11.2466 6.80818 11.2186C5.27467 10.5337 4.28834 9.02435 4.28638 7.35994ZM15.4291 20.9265H1.71497V19.2307C1.70241 16.3574 3.53244 13.7921 6.2732 12.8409C7.74454 13.4468 9.39953 13.4468 10.8709 12.8409C11.1571 12.9443 11.436 13.0664 11.7058 13.2063C11.8841 13.297 12.0486 13.4005 12.2201 13.5048C12.3315 13.5734 12.4446 13.6405 12.5518 13.7159C12.7172 13.8321 12.8732 13.9584 13.0266 14.0881C13.1252 14.1729 13.2229 14.2577 13.3155 14.3425C13.4569 14.4748 13.5897 14.6147 13.7174 14.758C13.8092 14.8614 13.8983 14.9666 13.9832 15.0751C14.0955 15.2176 14.2026 15.3634 14.302 15.5135C14.3878 15.6407 14.4641 15.7729 14.5394 15.9052C14.6252 16.051 14.704 16.1969 14.776 16.3487C14.848 16.5005 14.9115 16.6667 14.9731 16.8286C15.0271 16.9694 15.0846 17.1093 15.1291 17.2526C15.1891 17.4493 15.2311 17.6528 15.2731 17.8563C15.2988 17.9766 15.3323 18.0945 15.3511 18.2166C15.4019 18.5523 15.4279 18.8912 15.4291 19.2307V20.9265H15.4291ZM22.2863 20.9265H17.1435V19.2307C17.1435 18.9653 17.128 18.7025 17.104 18.4422C17.0972 18.3659 17.0852 18.2904 17.0766 18.2141C17.0535 18.0267 17.0269 17.841 16.9909 17.657C16.9755 17.5784 16.9592 17.4995 16.942 17.4204C16.9009 17.2316 16.8532 17.0445 16.7989 16.8591C16.7809 16.798 16.7646 16.7361 16.7457 16.676C16.5057 15.917 16.1579 15.1956 15.7129 14.5333L15.6795 14.485C15.5321 14.2684 15.3746 14.059 15.2072 13.8567L15.2012 13.849C15.0298 13.6388 14.8437 13.4344 14.6483 13.2411C14.6595 13.2411 14.6715 13.2411 14.6835 13.2411C14.9254 13.2725 15.1689 13.2895 15.4129 13.2919H15.4601C15.6859 13.29 15.9113 13.2755 16.1355 13.2487C16.2058 13.2402 16.2753 13.2275 16.3455 13.2165C16.5278 13.1888 16.7078 13.1529 16.8855 13.1088C16.9361 13.0961 16.9875 13.0842 17.0389 13.0698C17.2721 13.007 17.5011 12.93 17.7246 12.8392C20.4674 13.7894 22.2991 16.3559 22.2863 19.2308V20.9265H22.2863Z" fill="#7A7A7A"/>
</g>
</g>
<defs>
<clipPath id="clip0_109_137">
<rect width="24" height="23.7417" fill="white" transform="translate(0 0.147461)"/>
</clipPath>
</defs>
</svg>
