<svg width="39" height="43" viewBox="0 0 39 43" fill="none" xmlns="http://www.w3.org/2000/svg">
<path d="M9.54735 36.1294L6.99155 37.3762C5.12144 34.0386 4.14062 30.3134 4.14062 26.5C4.14062 23.706 4.65582 21.03 5.59605 18.5621L8.52461 19.9668C8.81342 20.1053 9.11828 20.171 9.41858 20.171C10.1901 20.171 10.9307 19.7377 11.2867 18.9955C11.7811 17.9646 11.3463 16.7279 10.3153 16.2334L7.42393 14.8465C11.0177 8.98547 17.2356 4.89919 24.4298 4.23565V7.34951C24.4298 8.49294 25.3567 9.41982 26.5001 9.41982C27.6435 9.41982 28.5704 8.49294 28.5704 7.34951V4.2341C31.037 4.45863 33.4236 5.08676 35.6893 6.10949C36.7312 6.57997 37.9575 6.11632 38.428 5.07444C38.8985 4.03224 38.435 2.8061 37.3928 2.33562C33.9596 0.78589 30.2948 0 26.5 0C19.4216 0 12.7669 2.75641 7.7616 7.7616C2.75652 12.7669 0 19.4216 0 26.5C0 31.7306 1.55253 36.8178 4.48978 41.2111C4.88542 41.8027 5.53954 42.131 6.21218 42.131C6.51796 42.131 6.82768 42.0632 7.11867 41.9212L11.3628 39.8509C12.3905 39.3496 12.8172 38.1102 12.3159 37.0825C11.8145 36.0549 10.5751 35.6283 9.54735 36.1294Z" fill="#2F3035"/>
</svg>
