<svg width="13" height="29" viewBox="0 0 13 29" fill="none" xmlns="http://www.w3.org/2000/svg">
<path d="M10.6643 1.6073C10.194 0.565208 8.96803 0.101458 7.92553 0.572143C6.88344 1.04262 6.42 2.26876 6.89048 3.31086C8.19705 6.20495 8.85945 9.29665 8.85945 12.5C8.85945 16.3191 7.87543 20.0504 5.99983 23.3917L3.33151 22.1211C2.29935 21.6296 1.0639 22.0678 0.572197 23.1002C0.0806012 24.1325 0.518991 25.368 1.55135 25.8596L5.89901 27.9299C6.18502 28.066 6.48822 28.1311 6.788 28.1311C7.46085 28.1311 8.11507 27.8024 8.51019 27.2113C11.4475 22.8179 13.0001 17.7307 13.0001 12.5C13.0001 8.70526 12.2142 5.0404 10.6643 1.6073Z" fill="#2F3035"/>
</svg>
