<svg width="26" height="26" viewBox="0 0 26 26" fill="none" xmlns="http://www.w3.org/2000/svg">
<path d="M25.0441 0.955987C24.3406 0.252599 23.2364 0.148876 22.4141 0.709206C19.3162 2.82072 3.77814 13.4384 2.10823 15.1082C-0.313419 17.53 -0.313419 21.4702 2.10823 23.8919C3.31905 25.1027 4.90967 25.7081 6.50008 25.7081C8.0905 25.7081 9.68102 25.1027 10.8919 23.8919C12.5618 22.222 23.1794 6.68392 25.291 3.58611C25.8511 2.76389 25.7475 1.65958 25.0441 0.955987ZM7.9639 20.964C7.15679 21.7713 5.84328 21.7713 5.03616 20.964C4.22895 20.1569 4.22885 18.8438 5.03575 18.0366C5.68459 17.3954 10.0961 14.2492 15.5239 10.4763C11.7511 15.9041 8.60487 20.3154 7.9639 20.964Z" fill="#2F3035"/>
</svg>
