<svg width="24" height="25" viewBox="0 0 24 25" fill="none" xmlns="http://www.w3.org/2000/svg">
<g id="Icon - Buy">
<path id="Vector" fill-rule="evenodd" clip-rule="evenodd" d="M5.54339 20.6322C6.25739 20.6322 6.83839 21.2073 6.83839 21.9152C6.83839 22.6231 6.25739 23.1991 5.54339 23.1991C4.82939 23.1991 4.24939 22.6231 4.24939 21.9152C4.24939 21.2073 4.82939 20.6322 5.54339 20.6322ZM16.8237 20.6322C17.5387 20.6322 18.1197 21.2073 18.1197 21.9152C18.1197 22.6231 17.5387 23.1991 16.8237 23.1991C16.1097 23.1991 15.5297 22.6231 15.5297 21.9152C15.5297 21.2073 16.1097 20.6322 16.8237 20.6322ZM1.26759 3.83436L3.34759 4.19129C3.68259 4.24978 3.93759 4.52541 3.96659 4.86251L4.20159 7.63962L5.07544 7.63999C5.21804 7.64005 5.35912 7.64011 5.49871 7.64018L7.10302 7.64093C7.2309 7.641 7.35735 7.64106 7.48238 7.64112L9.25378 7.64209C9.36506 7.64215 9.47501 7.64222 9.58364 7.64228L10.825 7.64307C10.9233 7.64313 11.0204 7.6432 11.1163 7.64327L12.2081 7.64406C12.2943 7.64413 12.3793 7.6442 12.4632 7.64426L13.4151 7.64507C13.49 7.64514 13.5638 7.64521 13.6365 7.64528L14.2621 7.6459C14.3285 7.64596 14.3939 7.64603 14.4582 7.6461L15.1828 7.64694C15.2393 7.64701 15.2949 7.64708 15.3495 7.64715L15.9613 7.64799C16.0087 7.64806 16.0552 7.64814 16.1009 7.64821L16.4898 7.64885C16.5305 7.64892 16.5704 7.64899 16.6096 7.64907L17.0427 7.64994C17.0758 7.65001 17.1082 7.65008 17.1399 7.65016L17.4065 7.65082C17.4341 7.65089 17.461 7.65096 17.4873 7.65104L17.773 7.65193C17.7945 7.65201 17.8153 7.65208 17.8356 7.65216L18.0034 7.65284C18.0204 7.65291 18.037 7.65299 18.053 7.65306L18.2227 7.65398C18.2351 7.65406 18.247 7.65413 18.2584 7.65421L18.3509 7.65491C18.3601 7.65498 18.3688 7.65506 18.3772 7.65514L18.4438 7.65584C18.4503 7.65592 18.4564 7.656 18.4623 7.65608L18.5076 7.65679C18.5118 7.65687 18.5159 7.65695 18.5197 7.65703L18.5483 7.65775C18.5509 7.65783 18.5534 7.65791 18.5557 7.65799L18.5764 7.65896C18.5777 7.65904 18.5789 7.65912 18.58 7.65921C18.5897 7.66011 18.5912 7.66027 18.5926 7.66044C19.1496 7.74075 19.6396 8.02926 19.9736 8.47344C20.3076 8.91663 20.4476 9.46293 20.3676 10.0102L19.4186 16.5123C19.2396 17.7496 18.1556 18.6826 16.8956 18.6826H5.97459C4.65759 18.6826 3.54259 17.6634 3.43559 16.3596L2.51959 5.55852L1.01259 5.30074C0.603593 5.22935 0.330593 4.84566 0.400593 4.44015C0.472593 4.03463 0.867593 3.7709 1.26759 3.83436ZM4.87483 9.12716L4.32759 9.12682L4.93059 16.2376C4.97459 16.7849 5.42559 17.1954 5.97659 17.1954H16.8936C17.4146 17.1954 17.8596 16.8107 17.9336 16.3001L18.8836 9.79705C18.9056 9.64238 18.8666 9.48772 18.7716 9.36279C18.6776 9.23687 18.5396 9.15557 18.3836 9.13376C18.3764 9.13403 18.3591 9.13428 18.3323 9.13451L18.2235 9.13513C18.2008 9.13522 18.1757 9.13531 18.1485 9.13539L17.582 9.13624C17.5342 9.13628 17.4845 9.13631 17.433 9.13633L16.101 9.13628C16.0267 9.13625 15.9509 9.13622 15.8739 9.13618L14.3538 9.13527C14.2627 9.1352 14.1706 9.13513 14.0776 9.13506L13.2175 9.13438C13.1195 9.1343 13.0208 9.13422 12.9214 9.13413L12.0103 9.13334C11.9074 9.13325 11.8041 9.13315 11.7002 9.13306L11.0727 9.13249C10.9674 9.13239 10.8617 9.13229 10.7559 9.1322L9.79819 9.13131C9.69141 9.13121 9.58456 9.13111 9.4777 9.13101L8.83706 9.13042C8.73044 9.13032 8.62395 9.13023 8.51763 9.13013L7.88243 9.12956C7.77709 9.12946 7.67205 9.12937 7.56738 9.12928L6.63687 9.12849C6.53495 9.1284 6.43357 9.12832 6.33281 9.12824L5.15688 9.12735C5.06199 9.12728 4.96795 9.12722 4.87483 9.12716ZM15.2875 11.3044C15.7015 11.3044 16.0375 11.6375 16.0375 12.048C16.0375 12.4585 15.7015 12.7916 15.2875 12.7916H12.5155C12.1005 12.7916 11.7655 12.4585 11.7655 12.048C11.7655 11.6375 12.1005 11.3044 12.5155 11.3044H15.2875Z" fill="#898CAF"/>
</g>
</svg>
