<svg width="24" height="24" viewBox="0 0 24 24" fill="none" xmlns="http://www.w3.org/2000/svg">
<g id="Icon - Time Circle">
<path id="Vector" fill-rule="evenodd" clip-rule="evenodd" d="M12 2C17.514 2 22 6.486 22 12C22 17.514 17.514 22 12 22C6.48598 22 1.99998 17.514 1.99998 12C1.99998 6.486 6.48598 2 12 2ZM12 3.5C7.31298 3.5 3.49998 7.313 3.49998 12C3.49998 16.687 7.31298 20.5 12 20.5C16.687 20.5 20.5 16.687 20.5 12C20.5 7.313 16.687 3.5 12 3.5ZM11.6612 7.0954C12.0762 7.0954 12.4112 7.4314 12.4112 7.8454V12.2674L15.8162 14.2974C16.1712 14.5104 16.2882 14.9704 16.0762 15.3264C15.9352 15.5614 15.6862 15.6924 15.4312 15.6924C15.3002 15.6924 15.1682 15.6584 15.0472 15.5874L11.2772 13.3384C11.0512 13.2024 10.9112 12.9574 10.9112 12.6934V7.8454C10.9112 7.4314 11.2472 7.0954 11.6612 7.0954Z" fill="#898CAF"/>
</g>
</svg>
