<svg width="37" height="37" viewBox="0 0 37 37" fill="none" xmlns="http://www.w3.org/2000/svg">
<g id="Icon - Home">
<path id="Vector 2" d="M16.92 20.4697C18.33 20.4697 19.46 21.6107 19.46 23.0307V26.4397C19.46 27.8497 18.33 28.9997 16.92 28.9997H13.54C12.14 28.9997 11 27.8497 11 26.4397V23.0307C11 21.6107 12.14 20.4697 13.54 20.4697H16.92ZM28.4601 20.4697C29.8601 20.4697 31.0001 21.6107 31.0001 23.0307V26.4397C31.0001 27.8497 29.8601 28.9997 28.4601 28.9997H25.0801C23.6701 28.9997 22.5401 27.8497 22.5401 26.4397V23.0307C22.5401 21.6107 23.6701 20.4697 25.0801 20.4697H28.4601ZM28.4601 9C29.8601 9 31.0001 10.15 31.0001 11.561V14.97C31.0001 16.39 29.8601 17.53 28.4601 17.53H25.0801C23.6701 17.53 22.5401 16.39 22.5401 14.97V11.561C22.5401 10.15 23.6701 9 25.0801 9H28.4601Z" fill="white"/>
<g id="Vector 1" filter="url(#filter0_d_2_27)">
<path d="M19.46 11.561C19.46 10.15 18.33 9 16.92 9H13.54C12.14 9 11 10.15 11 11.561V14.97C11 16.39 12.14 17.53 13.54 17.53H16.92C18.33 17.53 19.46 16.39 19.46 14.97V11.561Z" fill="#FA1F60"/>
</g>
</g>
<defs>
<filter id="filter0_d_2_27" x="0" y="0" width="36.46" height="36.53" filterUnits="userSpaceOnUse" color-interpolation-filters="sRGB">
<feFlood flood-opacity="0" result="BackgroundImageFix"/>
<feColorMatrix in="SourceAlpha" type="matrix" values="0 0 0 0 0 0 0 0 0 0 0 0 0 0 0 0 0 0 127 0" result="hardAlpha"/>
<feOffset dx="3" dy="5"/>
<feGaussianBlur stdDeviation="7"/>
<feComposite in2="hardAlpha" operator="out"/>
<feColorMatrix type="matrix" values="0 0 0 0 0.347833 0 0 0 0 0.241667 0 0 0 0 1 0 0 0 0.54 0"/>
<feBlend mode="normal" in2="BackgroundImageFix" result="effect1_dropShadow_2_27"/>
<feBlend mode="normal" in="SourceGraphic" in2="effect1_dropShadow_2_27" result="shape"/>
</filter>
</defs>
</svg>
