<svg width="20" height="20" viewBox="0 0 20 20" fill="none" xmlns="http://www.w3.org/2000/svg">
<g id="Icon - Dot">
<path id="Union" fill-rule="evenodd" clip-rule="evenodd" d="M9.58337 6.66663C8.89421 6.66663 8.33337 6.10579 8.33337 5.41663C8.33337 4.72746 8.89421 4.16663 9.58337 4.16663C10.2725 4.16663 10.8334 4.72746 10.8334 5.41663C10.8334 6.10579 10.2725 6.66663 9.58337 6.66663ZM8.33337 9.58329C8.33337 10.2725 8.89421 10.8333 9.58337 10.8333C10.2725 10.8333 10.8334 10.2725 10.8334 9.58329C10.8334 8.89413 10.2725 8.33329 9.58337 8.33329C8.89421 8.33329 8.33337 8.89413 8.33337 9.58329ZM8.33337 13.75C8.33337 14.4391 8.89421 15 9.58337 15C10.2725 15 10.8334 14.4391 10.8334 13.75C10.8334 13.0608 10.2725 12.5 9.58337 12.5C8.89421 12.5 8.33337 13.0608 8.33337 13.75Z" fill="white"/>
</g>
</svg>
