<svg width="24" height="24" viewBox="0 0 24 24" fill="none" xmlns="http://www.w3.org/2000/svg">
<g id="Icon - Search">
<path id="Vector 2" fill-rule="evenodd" clip-rule="evenodd" d="M11.2222 5.77772C8.21535 5.77772 5.77778 8.21528 5.77778 11.2222C5.77778 14.2291 8.21535 16.6666 11.2222 16.6666C14.2291 16.6666 16.6667 14.2291 16.6667 11.2222C16.6667 8.21528 14.2291 5.77772 11.2222 5.77772ZM4.22223 11.2222C4.22223 7.35617 7.35624 4.22217 11.2222 4.22217C15.0882 4.22217 18.2222 7.35617 18.2222 11.2222C18.2222 15.0882 15.0882 18.2222 11.2222 18.2222C7.35624 18.2222 4.22223 15.0882 4.22223 11.2222Z" fill="#8488B7"/>
<path id="Vector 1" fill-rule="evenodd" clip-rule="evenodd" d="M16.5834 16.5834C16.8871 16.2797 17.3796 16.2797 17.6833 16.5834L19.55 18.4501C19.8537 18.7538 19.8537 19.2463 19.55 19.55C19.2462 19.8538 18.7538 19.8538 18.45 19.55L16.5834 17.6833C16.2796 17.3796 16.2796 16.8871 16.5834 16.5834Z" fill="#8488B7"/>
</g>
</svg>
