<svg width="29" height="29" viewBox="0 0 29 29" fill="none" xmlns="http://www.w3.org/2000/svg">
<g id="Icon - Notification">
<path id="Bell" fill-rule="evenodd" clip-rule="evenodd" d="M9.84963 24.3062C10.4652 24.9918 11.2554 25.3685 12.0753 25.3685H12.0765C12.9 25.3685 13.6938 24.9918 14.3106 24.305C14.6409 23.9402 15.2042 23.9105 15.569 24.2396C15.935 24.5688 15.9647 25.1333 15.6355 25.4981C14.6754 26.564 13.4122 27.151 12.0765 27.151H12.0742C10.7421 27.1498 9.48125 26.5628 8.52465 25.4969C8.19549 25.1321 8.2252 24.5676 8.5912 24.2396C8.9572 23.9093 9.52046 23.939 9.84963 24.3062ZM12.1345 1.60217C17.4166 1.60217 20.9649 5.71613 20.9649 9.55796C20.9649 11.5341 21.4676 12.3719 22.0011 13.2608C22.5287 14.1377 23.1265 15.1336 23.1265 17.0158C22.7117 21.825 17.6911 22.2171 12.1345 22.2171C6.57795 22.2171 1.55612 21.825 1.14613 17.0919C1.14258 15.1336 1.74031 14.1377 2.26792 13.2608L2.45418 12.9472C2.91279 12.159 3.30414 11.3016 3.30414 9.55796C3.30414 5.71613 6.85245 1.60217 12.1345 1.60217ZM12.1345 3.38465C7.98136 3.38465 5.08661 6.63827 5.08661 9.55796C5.08661 12.0285 4.40095 13.1705 3.79491 14.1781C3.30889 14.9874 2.92506 15.6267 2.92506 17.0158C3.12351 19.257 4.60297 20.4346 12.1345 20.4346C19.6245 20.4346 21.1503 19.2047 21.3476 16.9386C21.344 15.6267 20.9602 14.9874 20.4741 14.1781C19.8681 13.1705 19.1824 12.0285 19.1824 9.55796C19.1824 6.63827 16.2877 3.38465 12.1345 3.38465Z" fill="white"/>
<circle id="Notif" cx="19.5614" cy="5.16713" r="4.06495" fill="#F74A4A" stroke="#FEFEFE"/>
</g>
</svg>
