<svg width="24" height="24" viewBox="0 0 24 24" fill="none" xmlns="http://www.w3.org/2000/svg">
<g id="Icon - Log Out">
<path id="Vector 3" fill-rule="evenodd" clip-rule="evenodd" d="M19 4C19.2652 4 19.5196 4.10536 19.7071 4.29289C19.8946 4.48043 20 4.73478 20 5V19C20 19.2652 19.8946 19.5196 19.7071 19.7071C19.5196 19.8946 19.2652 20 19 20H15C14.4477 20 14 20.4477 14 21C14 21.5523 14.4477 22 15 22H19C19.7957 22 20.5587 21.6839 21.1213 21.1213C21.6839 20.5587 22 19.7957 22 19V5C22 4.20435 21.6839 3.44129 21.1213 2.87868C20.5587 2.31607 19.7956 2 19 2H15C14.4477 2 14 2.44772 14 3C14 3.55228 14.4477 4 15 4H19Z" fill="#898CAF"/>
<path id="Vector 2" fill-rule="evenodd" clip-rule="evenodd" d="M8.70711 6.29289C8.31658 5.90237 7.68342 5.90237 7.29289 6.29289L2.29289 11.2929C1.90237 11.6834 1.90237 12.3166 2.29289 12.7071L7.29289 17.7071C7.68342 18.0976 8.31658 18.0976 8.70711 17.7071C9.09763 17.3166 9.09763 16.6834 8.70711 16.2929L4.41421 12L8.70711 7.70711C9.09763 7.31658 9.09763 6.68342 8.70711 6.29289Z" fill="#898CAF"/>
<path id="Vector 1" fill-rule="evenodd" clip-rule="evenodd" d="M16 12C16 11.4477 15.5523 11 15 11H3C2.44771 11 2 11.4477 2 12C2 12.5523 2.44771 13 3 13H15C15.5523 13 16 12.5523 16 12Z" fill="#898CAF"/>
</g>
</svg>
