<svg width="24" height="24" viewBox="0 0 24 24" fill="none" xmlns="http://www.w3.org/2000/svg">
<g id="Icon - Message">
<path id="Mail" fill-rule="evenodd" clip-rule="evenodd" d="M16.6589 2C19.9889 2 22.4999 4.717 22.4999 8.32V15.188C22.4999 17.032 21.8479 18.698 20.6629 19.88C19.5999 20.939 18.2209 21.5 16.6749 21.5H6.82194C5.27894 21.5 3.90094 20.94 2.83694 19.88C1.65194 18.698 0.999939 17.032 0.999939 15.188V8.32C0.999939 4.717 3.51094 2 6.84094 2H16.6589ZM16.6589 3.5H6.84094C4.32594 3.5 2.49994 5.527 2.49994 8.32V15.188C2.49994 16.631 2.99594 17.92 3.89594 18.817C4.67194 19.592 5.68494 20 6.82494 20H16.6589C16.6609 19.998 16.6689 20 16.6749 20C17.8159 20 18.8279 19.592 19.6039 18.817C20.5049 17.92 20.9999 16.631 20.9999 15.188V8.32C20.9999 5.527 19.1739 3.5 16.6589 3.5ZM18.2349 8.1288C18.4959 8.4498 18.4469 8.9218 18.1259 9.1838L13.6819 12.7958C13.1199 13.2418 12.4479 13.4648 11.7769 13.4648C11.1079 13.4648 10.4409 13.2438 9.88294 12.8018L5.39794 9.1858C5.07494 8.9258 5.02494 8.4528 5.28394 8.1308C5.54494 7.8098 6.01694 7.7588 6.33894 8.0178L10.8199 11.6298C11.3829 12.0758 12.1759 12.0758 12.7429 11.6258L17.1789 8.0198C17.5009 7.7568 17.9729 7.8068 18.2349 8.1288Z" fill="#898CAF"/>
</g>
</svg>
