<svg width="24" height="24" viewBox="0 0 24 24" fill="none" xmlns="http://www.w3.org/2000/svg">
<g id="Icon - Settings">
<path id="Vector " fill-rule="evenodd" clip-rule="evenodd" d="M12.2672 2.00055C12.9832 2.00055 13.6792 2.29455 14.1782 2.80555C14.6762 3.31955 14.9512 4.02455 14.9302 4.73955C14.9322 4.90055 14.9852 5.08655 15.0812 5.24955C15.2402 5.51955 15.4912 5.70955 15.7892 5.78755C16.0872 5.86155 16.3992 5.82155 16.6642 5.66455C17.9442 4.93355 19.5732 5.37155 20.3042 6.64155L20.9272 7.72055C20.9432 7.74955 20.9572 7.77755 20.9692 7.80655C21.6312 9.05755 21.1892 10.6325 19.9592 11.3515C19.7802 11.4545 19.6352 11.5985 19.5352 11.7725C19.3802 12.0415 19.3372 12.3616 19.4152 12.6556C19.4952 12.9556 19.6862 13.2045 19.9552 13.3585C20.5622 13.7075 21.0152 14.2955 21.1962 14.9745C21.3772 15.6525 21.2782 16.3885 20.9252 16.9955L20.2612 18.1015C19.5302 19.3575 17.9012 19.7925 16.6342 19.0605C16.4652 18.9635 16.2702 18.9105 16.0762 18.9056H16.0702C15.7812 18.9056 15.4842 19.0285 15.2682 19.2435C15.0492 19.4625 14.9292 19.7546 14.9312 20.0646C14.9242 21.5336 13.7292 22.7215 12.2672 22.7215H11.0142C9.54524 22.7215 8.35024 21.5275 8.35024 20.0585C8.34824 19.8776 8.29624 19.6896 8.19924 19.5266C8.04224 19.2526 7.78824 19.0565 7.49524 18.9785C7.20424 18.9006 6.88524 18.9436 6.62324 19.0956C5.99524 19.4456 5.25624 19.5306 4.58024 19.3405C3.90524 19.1495 3.32224 18.6855 2.98024 18.0705L2.35524 16.9935C1.62424 15.7255 2.05924 14.1005 3.32524 13.3685C3.68424 13.1615 3.90724 12.7755 3.90724 12.3615C3.90724 11.9475 3.68424 11.5605 3.32524 11.3535C2.05824 10.6175 1.62424 8.98855 2.35424 7.72055L3.03224 6.60755C3.75324 5.35355 5.38324 4.91155 6.65424 5.64155C6.82724 5.74455 7.01524 5.79655 7.20624 5.79855C7.82924 5.79855 8.35024 5.28455 8.36024 4.65255C8.35624 3.95555 8.63124 3.28655 9.13224 2.78155C9.63524 2.27755 10.3032 2.00055 11.0142 2.00055H12.2672ZM12.2672 3.50055H11.0142C10.7042 3.50055 10.4142 3.62155 10.1952 3.83955C9.97724 4.05855 9.85824 4.34955 9.86024 4.65955C9.83924 6.12155 8.64424 7.29855 7.19724 7.29855C6.73324 7.29355 6.28624 7.16855 5.89824 6.93655C5.35324 6.62655 4.64124 6.81755 4.32224 7.37255L3.64524 8.48555C3.33524 9.02355 3.52524 9.73455 4.07724 10.0555C4.89624 10.5295 5.40724 11.4135 5.40724 12.3615C5.40724 13.3095 4.89624 14.1925 4.07524 14.6675C3.52624 14.9855 3.33624 15.6925 3.65424 16.2425L4.28524 17.3305C4.44124 17.6115 4.69624 17.8145 4.99124 17.8975C5.28524 17.9795 5.60924 17.9445 5.87924 17.7945C6.27624 17.5616 6.73824 17.4405 7.20224 17.4405C7.43124 17.4405 7.66024 17.4695 7.88424 17.5295C8.56024 17.7115 9.14724 18.1635 9.49524 18.7705C9.72124 19.1516 9.84624 19.5965 9.85024 20.0506C9.85024 20.7006 10.3722 21.2215 11.0142 21.2215H12.2672C12.9062 21.2215 13.4282 20.7036 13.4312 20.0646C13.4272 19.3586 13.7032 18.6875 14.2082 18.1826C14.7062 17.6846 15.4022 17.3855 16.0982 17.4056C16.5542 17.4165 16.9932 17.5395 17.3802 17.7596C17.9372 18.0786 18.6482 17.8885 18.9702 17.3385L19.6342 16.2315C19.7822 15.9765 19.8252 15.6565 19.7462 15.3615C19.6682 15.0665 19.4722 14.8105 19.2082 14.6595C18.5902 14.3035 18.1492 13.7295 17.9662 13.0415C17.7852 12.3665 17.8842 11.6295 18.2372 11.0225C18.4672 10.6226 18.8042 10.2856 19.2082 10.0535C19.7502 9.73655 19.9402 9.02755 19.6252 8.47555C19.6122 8.45355 19.6002 8.43055 19.5902 8.40655L19.0042 7.39055C18.6852 6.83555 17.9752 6.64455 17.4182 6.96155C16.8162 7.31755 16.1002 7.41955 15.4122 7.23855C14.7252 7.06055 14.1492 6.62555 13.7902 6.01155C13.5602 5.62755 13.4352 5.18055 13.4312 4.72555C13.4402 4.38355 13.3202 4.07655 13.1022 3.85155C12.8852 3.62755 12.5802 3.50055 12.2672 3.50055ZM11.6451 8.97465C13.5121 8.97465 15.0311 10.4946 15.0311 12.3616C15.0311 14.2286 13.5121 15.7466 11.6451 15.7466C9.77814 15.7466 8.25914 14.2286 8.25914 12.3616C8.25914 10.4946 9.77814 8.97465 11.6451 8.97465ZM11.6451 10.4746C10.6051 10.4746 9.75914 11.3216 9.75914 12.3616C9.75914 13.4016 10.6051 14.2466 11.6451 14.2466C12.6851 14.2466 13.5311 13.4016 13.5311 12.3616C13.5311 11.3216 12.6851 10.4746 11.6451 10.4746Z" fill="#898CAF"/>
</g>
</svg>
