<svg width="24" height="24" viewBox="0 0 24 24" fill="none" xmlns="http://www.w3.org/2000/svg">
<g id="Icon - Wallet">
<path id="Vector" fill-rule="evenodd" clip-rule="evenodd" d="M16.6415 3C19.9485 3 22.6385 5.69 22.6385 8.998V16.175C22.6385 19.482 19.9485 22.173 16.6415 22.173H7.99751C4.69051 22.173 1.99951 19.482 1.99951 16.175V8.998C1.99951 5.69 4.69051 3 7.99751 3H16.6415ZM16.6415 4.5H7.99751C5.51751 4.5 3.49951 6.518 3.49951 8.998V16.175C3.49951 18.655 5.51751 20.673 7.99751 20.673H16.6415C19.1215 20.673 21.1385 18.655 21.1385 16.175V15.895L17.8406 15.8956C15.9436 15.8956 14.3996 14.3526 14.3986 12.4566C14.3986 10.5586 15.9426 9.0146 17.8406 9.0136L21.1385 9.013V8.998C21.1385 6.518 19.1215 4.5 16.6415 4.5ZM21.1385 10.513L17.8406 10.5136C16.7696 10.5146 15.8986 11.3856 15.8986 12.4556C15.8986 13.5246 16.7706 14.3956 17.8406 14.3956L21.1385 14.395V10.513ZM18.2982 11.6436C18.7122 11.6436 19.0482 11.9796 19.0482 12.3936C19.0482 12.8076 18.7122 13.1436 18.2982 13.1436H17.9862C17.5722 13.1436 17.2362 12.8076 17.2362 12.3936C17.2362 11.9796 17.5722 11.6436 17.9862 11.6436H18.2982ZM12.6845 7.5381C13.0985 7.5381 13.4345 7.8741 13.4345 8.2881C13.4345 8.7021 13.0985 9.0381 12.6845 9.0381H7.28551C6.87151 9.0381 6.53551 8.7021 6.53551 8.2881C6.53551 7.8741 6.87151 7.5381 7.28551 7.5381H12.6845Z" fill="#898CAF"/>
</g>
</svg>
